<svg xmlns="http://www.w3.org/2000/svg" width="222" height="79" viewBox="0 0 222 79"><title>logo</title><path d="M101.17,23a2.57,2.57,0,0,0,3.2-1.39,10.48,10.48,0,0,0,.81-2.1q.07-.3.12-.6c.42-2.67-1.93-4.31-4.56-4.42a2.94,2.94,0,0,0-2.81,2C96.33,20.52,98.3,22.14,101.17,23Z" style="fill:#211451"/><path d="M220.75,36.81c.2-2.34.8-4.93.19-7.26a3.69,3.69,0,0,0-1.49-2,5.33,5.33,0,0,0-4.94-.87,15.77,15.77,0,0,0-5,2.7,14.53,14.53,0,0,0-3,4c-.15.26-.74,1.17-.89,1.42A25,25,0,0,1,206,32c.19-1,.33-1.95.51-2.92a2.05,2.05,0,0,0-1.22-2.42,15.1,15.1,0,0,0-3-1.43c-1.53-.41-2.16.38-2.71,1.7a17.47,17.47,0,0,0-.79,4.11c-.5,3.41-.65,6.86-1,10.28a14.17,14.17,0,0,1-1.13,4.92c-1.59,3-6.08,3.84-9.18,3.14A5.9,5.9,0,0,1,183,45.16l3.3-1.09a11.86,11.86,0,0,0,8.08-9,8.52,8.52,0,0,0,0-3c-.95-4.64-6.56-8-11.15-6.66a8.08,8.08,0,0,0-3.33,2.13,12.17,12.17,0,0,0-3,4.77,20.19,20.19,0,0,0-1.34,6.22,34.9,34.9,0,0,1-.2,5.69,7.24,7.24,0,0,1-3,4.52,2.88,2.88,0,0,1-4.3-.91,3.25,3.25,0,0,1-.31-1.4,4.59,4.59,0,0,1,.27-2.17,35.49,35.49,0,0,1,2.12-3.81,24,24,0,0,0,2-4.1,8.74,8.74,0,0,0,.15-4.16,8.12,8.12,0,0,0-1.48-3.31,6.91,6.91,0,0,0-2.09-1.79,9,9,0,0,0-1.38-.62c-.24-.08-.49-.16-.73-.22L166,26c1.31-2.16,1.79-2.94,2.61-4.44a20,20,0,0,0,2.15-4.87,14.13,14.13,0,0,0-2.15-11.62c-2.41-3.28-6.34-5.43-10.43-4.16a10.91,10.91,0,0,0-3.35,1.78c-3.42,2.62-4.38,6.68-5.29,10.73-1.22,5.43-1.56,8.73-2.25,16.46-.17,1.93-.34,3.85-.47,5.79-.08,1.07-.17,2.14-.25,3.21-.23,2.83-.49,5.86-2.57,8-2.82,2.87-7.69,3.25-10.15-.26a11.12,11.12,0,0,1-1.61-4,13.51,13.51,0,0,1,.82-8.55c.62-1.43,2.3-4.73,4.36-3.55a2.75,2.75,0,0,1,1.67,3c-.11.72-1,1.46-1.3,2.15-1.07,2.45,2.4,3.55,3.86,2.44a6.21,6.21,0,0,0,2.17-2.82c1.29-3.76-1.44-8-4.87-9.35a9.9,9.9,0,0,0-12.54,5.11,18.22,18.22,0,0,0-1.49,10.67c.3,2,.4,4.19-1,5.84a4.4,4.4,0,0,1-4.22,1.49c-2.66-.76-2.47-4.43-2.54-6.58s0-4.19,0-6.29q0-1.56.12-3.12c0-.51,0-1,.07-1.54,0-.68,0-2.14.68-2.56a5.52,5.52,0,0,1,1.93-.47c2.71-.59,5.52-.83,6-3.85a1.77,1.77,0,0,0,0-.76.88.88,0,0,0-.48-.57,1.48,1.48,0,0,0-.63-.06c-2,.12-4,.45-6.07.55-.32,0-.75,0-.85-.37a2.36,2.36,0,0,1,.11-1c.06-.34.1-.69.17-1,.18-1,.33-1.94.5-2.91a2.07,2.07,0,0,0-1.21-2.43,16,16,0,0,0-3-1.43c-1.53-.41-2.16.38-2.71,1.71a16.8,16.8,0,0,0-.79,4.11c-.11.74-.21,1.49-.3,2.24-.06.52-.08,1.05-.13,1.57s-.18.84-.73.93a32.12,32.12,0,0,0-3.46.93c-1.09.43-.62,1.74,0,2.34.39.37,1.19.24,1.67.23s1.35,0,1.78.46a1.65,1.65,0,0,1,.27,1.28c0,.47-.09.93-.11,1.4-.07,1.11-.13,2.22-.19,3.33,0,.92-.09,1.84-.14,2.77-.06,1.25-.18,2.47-.18,3.72a9.92,9.92,0,0,1-1.37,5.59c-1.16,1.7-3.78,3-5.56,1.39-1.14-1-1.33-2.83-1.39-4.27a80.8,80.8,0,0,1,.3-9.59,22.81,22.81,0,0,1,.36-2.85c.18-1,.33-1.95.5-2.92a2.05,2.05,0,0,0-1.21-2.42,16,16,0,0,0-3-1.44c-1.53-.4-2.16.38-2.71,1.71A16.89,16.89,0,0,0,94.55,31a56.34,56.34,0,0,0-.62,6.24c-.08,2.12.06,4.24.06,6.36,0,1.6.26,3.09-1,4.37a5.24,5.24,0,0,1-3.76,1.54,9.82,9.82,0,0,1-6-2.6l-.32-.28c-.24-.23-1.65-1.47-2.16-2,2-1.09,3.59-1.72,5.24-2.85a10,10,0,0,0,3.76-5.3,8.6,8.6,0,0,0-1.3-7.57,7.09,7.09,0,0,0-2.09-1.8A9.48,9.48,0,0,0,85,26.51l-.73-.23c-.07,0-.62-.19-.62-.19,1.32-2.16,1.79-2.94,2.61-4.44a20,20,0,0,0,2.15-4.87A14.13,14.13,0,0,0,86.26,5.16C83.85,1.88,79.92-.27,75.83,1a10.7,10.7,0,0,0-3.35,1.78c-3.42,2.62-4.37,6.67-5.29,10.73C66,18.94,65.63,22.24,64.94,30c-.37,4.2-.74,8.44-.76,12.66a19.53,19.53,0,0,0,1.28,7.47A8.12,8.12,0,0,0,67.53,53a6.19,6.19,0,0,0,2.23,1.4,2.82,2.82,0,0,0,2.58-.13,2.54,2.54,0,0,0,.77-1.39A20.3,20.3,0,0,0,73.36,50c0-.46.35-3.14,1.17-2.15,1,1.19,2.8,2.85,3.88,3.92a15.22,15.22,0,0,0,9.37,2.94,14.06,14.06,0,0,0,4.59-.75A8.44,8.44,0,0,0,94,53.17a11.22,11.22,0,0,0,1.63-1.12,7,7,0,0,0,1.11,1.13,6.73,6.73,0,0,0,1.61,1c3.36,1.38,8.31.4,11.19-1.74.17-.12,1.8-1.38,1.72-1.52,1.08,1.77,2.2,3.14,4.49,3.58a12.46,12.46,0,0,0,9-1.87,13.76,13.76,0,0,0,2.74-2.54c.1-.11.2-.23.29-.35a12.27,12.27,0,0,0,1.71,2,12.51,12.51,0,0,0,5.12,2.5,12.71,12.71,0,0,0,5,.27,13.37,13.37,0,0,0,4.64-1.28,13.67,13.67,0,0,0,3.55-3,8,8,0,0,0,2,2.76,6.24,6.24,0,0,0,2.22,1.4,2.84,2.84,0,0,0,2.59-.13c1.82-1.56,1.78-4,1.89-6.16.21-4,1.92-8.08,3.8-11.56a22.83,22.83,0,0,1,2.29-3.8,2.66,2.66,0,0,1,1.33-.92c.82-.25,1.15.49,1.25,1.17a5.26,5.26,0,0,1-.94,2.84,29.26,29.26,0,0,0-3,8.9,8.79,8.79,0,0,0,1.76,6.81,7.73,7.73,0,0,0,6.85,3,14.72,14.72,0,0,0,7.85-4.45l.37-.45c-.19.24,2,2.15,2.23,2.35a12.24,12.24,0,0,0,2.94,1.68,15.39,15.39,0,0,0,11.06,0,16.23,16.23,0,0,0,4.71-2.73,7.29,7.29,0,0,0,1.86,2.3,6.42,6.42,0,0,0,1.61,1c.91.37,2.23.87,3.08.14a3.14,3.14,0,0,0,.87-2.36c0-1-.32-1.86-.38-2.81a23.4,23.4,0,0,1,2.1-10.72,24.52,24.52,0,0,1,1.36-2.77c1.11-1.68,5-5.14,5.75-2.16.16.65-.77,3.65-.9,4.29-.16.87-.5,1.7-.66,2.57s-.34,1.8-.46,2.7a15.15,15.15,0,0,0,.32,5.77c.54,2.14,1.43,4.73,3.6,5.72a1.85,1.85,0,0,0,2.31-.7,5.69,5.69,0,0,0,1-3.09,16.64,16.64,0,0,0-.11-2,34.34,34.34,0,0,1-.45-5.9C220.11,40.81,220.58,38.83,220.75,36.81ZM73.69,35.27,72.63,37l-1.89,3.25c0-.29,0-.56,0-.69l0-.61c.13-3.4.26-6.87.45-10.3.14-2.41.27-4.9.55-7.34.2-1.64.57-3.24.85-4.86a31.1,31.1,0,0,1,1.51-5.6c.59-1.61,1.19-3.53,2.45-4.75,1.86-1.8,5.45-.88,6.86,1.06,3.83,5.28.67,11.5-2.41,16.21v0l-.9,1.37C77.87,28.22,75.79,31.76,73.69,35.27ZM74.93,43c.56-1.29.43-1,.48-1.09.46-1.13,1-2.25,1.57-3.34s1.15-2.21,1.75-3.3a1.4,1.4,0,0,0,.1-.16,16.57,16.57,0,0,1,1.49-2.37,2.68,2.68,0,0,1,1.33-.91c1.14-.35,1.38,1.55,1.29,2.28a7.63,7.63,0,0,1-1.14,2.93C80.22,39.63,77.52,41.52,74.93,43Zm88.41-19.67h0l-.9,1.37c-2.25,3.43-4.33,7-6.43,10.48-.35.59-.7,1.18-1.06,1.76-.2.34-1.64,2.84-1.89,3.25,0-.29,0-.56,0-.69l0-.61c.13-3.4.26-6.87.45-10.3.14-2.41.27-4.9.55-7.33.2-1.65.57-3.25.84-4.87a32,32,0,0,1,1.52-5.6c.58-1.61,1.19-3.53,2.45-4.75,1.85-1.8,5.45-.88,6.86,1.06C169.58,12.4,166.42,18.63,163.34,23.34Zm18.91,14.92A17.33,17.33,0,0,1,184,32.91a6.74,6.74,0,0,1,1.54-2,2.31,2.31,0,0,1,1-.51,2.09,2.09,0,0,1,1.18.18,3.56,3.56,0,0,1,1.66,3.69,8.72,8.72,0,0,1-2,4.11,9.63,9.63,0,0,1-2.54,2c-.3.17-.6.34-.91.49l-.86.44a6.38,6.38,0,0,1-.87.3A16.2,16.2,0,0,1,182.25,38.26Z" style="fill:#211451"/><path d="M204.27,59.65a24.39,24.39,0,0,0-4.13-.39c-2-.13-5.89-.16-8-.13-10.54,0-16.86.07-27.41-.1h-.16c-10.56,0-21.12-.41-31.68-.51h-.48c-10.4-.1-20.79-.27-31.19-.27-9.8,0-19.63-.17-29.43.07-4.7.12-9.31.14-14,.33a80.88,80.88,0,0,0,.62-8.07c.11-2.4.28-4.84.42-7.23a80.74,80.74,0,0,1,1-10.66,6.59,6.59,0,0,0,.09-2.17,2.7,2.7,0,0,0-1.53-1.8,11.36,11.36,0,0,0-2.6-1.2c-2.78-.74-2.91,3.8-3,5.5q-.16,3.21-.4,6.42c-.21,2.81-.3,5.56-1.49,8.18a3.18,3.18,0,0,1-1,1.41c-1.11.68-2.47-.19-3.16-1.07a2.71,2.71,0,0,1-.28-.41,8.94,8.94,0,0,1-.8-4.06,41,41,0,0,1,.52-8.2c.17-1.1.35-2.24.59-3.34a23.3,23.3,0,0,0,.64-3.31,2.11,2.11,0,0,0-1.25-2.12,14.7,14.7,0,0,0-2.83-1.35c-2.19-.58-2.91,1.85-3.2,3.51a64.58,64.58,0,0,0-.85,6.93c-.11,1.84-.12,3.18-.21,4.79s-.1,3.24-.23,4.84a4.72,4.72,0,0,1-1.43,3.46,3.26,3.26,0,0,1-3.2.4,3.08,3.08,0,0,1-1.34-2.5,18.1,18.1,0,0,1,.43-6.13c.53-2.86,1.26-5.89.72-8.81a4.43,4.43,0,0,0-6.12-3.12,6.73,6.73,0,0,0-1.73,1.32,33.39,33.39,0,0,0-3.57,4.46l-.45.64a20.27,20.27,0,0,1,.1-2.13,11.05,11.05,0,0,0-.32-3.29,3.75,3.75,0,0,0-1.49-2,5.81,5.81,0,0,0-6.44.13c-2,1.28-3.3,3.72-4.46,5.76-.15.26-.73,1.17-.89,1.42A25,25,0,0,1,8.92,32c.19-1,.33-1.95.51-2.92a2.05,2.05,0,0,0-1.22-2.42,15.62,15.62,0,0,0-3-1.44c-1.54-.4-2.17.38-2.71,1.71A16.89,16.89,0,0,0,1.71,31c-.22,1.51-.4,3-.53,4.54-.27,3-.38,6.08-.38,9.13a14.54,14.54,0,0,0,.94,5.53,7.26,7.26,0,0,0,2.18,3,6.48,6.48,0,0,0,1.6,1c.91.37,2.23.87,3.09.14a3.14,3.14,0,0,0,.87-2.36c0-1-.32-3-.39-4A22,22,0,0,1,11,37.74c.71-1.62,1.33-3.13,2.94-4.08a1.06,1.06,0,0,1,1.7.61,5.3,5.3,0,0,1-.09,2.9A59.08,59.08,0,0,0,14.35,43a15.35,15.35,0,0,0,.32,5.77c.54,2.14,1.43,4.73,3.6,5.71a1.81,1.81,0,0,0,1.82-.24,3.87,3.87,0,0,0,1.42-2.55c0-.1,0-.32.06-.42a39.62,39.62,0,0,0,0-4.75,18.56,18.56,0,0,1,2.89-10c.57-.87,1.57-2.17,2.7-2.32,1.66-.21.87,3.27.64,4.09-.37,1.28-.93,2.51-1.18,3.82a18.39,18.39,0,0,0-.39,4.62,9.88,9.88,0,0,0,1.8,5,6.2,6.2,0,0,0,3.29,2.52,9.65,9.65,0,0,0,7-1.18,13.47,13.47,0,0,0,2.76-2.68c.38.56.78,1.13.87,1.23a7.82,7.82,0,0,0,5.52,2.79,6.07,6.07,0,0,0,3.74-1,7.87,7.87,0,0,0,.75-.78c0,.18,0,1.07,0,1.25,0,1.22-.21,3.38-.33,5l-2.47.18c-5.22.36-10.42.76-15.59,1.57-1.26.2-2.51.42-3.76.65-4.48.85-9.36,1.87-13.22,4.44-1.82,1.21-3.47,3-3.68,5.23-.4,4.22,3.93,5.67,7.26,6.38,8.83,1.88,19.44,1.26,27.59-2.9a15.19,15.19,0,0,0,5.28-4,23.5,23.5,0,0,0,2.74-5c.11-.26.86-2.39,1.07-3,7.19-.33,13.41-.47,14.34-.48,5.85,0,11.7,0,17.55,0,10.52,0,21,.08,31.55.13,6.87,0,13.75.24,20.61.24,10.58.24,21.16.74,31.74,1,4.43.12,8.86.16,13.29.32,4.24.19,7.44.25,10.61.3,1.06,0,2,0,2.85.14s1.95.15,2.93.24a2.4,2.4,0,0,0,2.39-.92A9.58,9.58,0,0,0,206,61.43C206.41,60.37,205.61,60,204.27,59.65Zm-153.16,4c-.54,3.1-1.71,6.14-4.46,8a17.54,17.54,0,0,1-6.52,2.54,46.53,46.53,0,0,1-12.47,1.11c-2.31-.14-9-.34-9.15-3.8v-.07c0-1.7,2.75-3.32,4.09-3.85A53.19,53.19,0,0,1,35,64.63c.73-.08,1.72-.22,3-.45,2.25-.31,4.5-.57,6.76-.82.6-.06,5.76-.43,6.42-.51C51.18,63.11,51.15,63.38,51.11,63.64Z" style="fill:#211451"/></svg>